<?xml version="1.0" encoding="UTF-8" standalone="no"?>
<!-- Created with Inkscape (http://www.inkscape.org/) -->

<svg
   width="205.4292mm"
   height="127.74255mm"
   viewBox="0 0 205.4292 127.74255"
   version="1.1"
   id="svg5"
   xml:space="preserve"
   xmlns="http://www.w3.org/2000/svg"
   xmlns:svg="http://www.w3.org/2000/svg"><defs
     id="defs2" /><g
     id="layer1"
     transform="translate(-2.2853978,-84.628728)"><path
       id="path179"
       style="fill:#ff5a5f;fill-opacity:1;stroke:#000000;stroke-width:0.954832;stroke-opacity:1"
       d="m 119.0832,85.481213 c -3.78912,1.125081 -8.85129,2.11061 -25.560302,12.737727 L 56.789393,125.53418 C 41.591384,117.20551 40.539878,103.35945 23.297545,101.49714 4.8895678,101.25682 3.6939832,112.96507 2.7703354,119.52539 c 3.007314,13.30917 8.1235236,11.69358 12.4250036,15.84151 l 15.664777,12.56333 c -6.067194,11.27429 -16.348379,13.4073 -24.2843881,23.98264 -3.5874191,1.21699 -5.4451081,17.76175 -0.7881696,19.63547 1.4518522,2.52972 8.0855117,7.97023 23.9932417,3.9102 l 24.68682,-21.97969 c 1.509738,-0.21903 3.561942,-0.0266 5.563429,0.12751 8.430632,5.72108 24.280678,28.83785 45.375361,36.0546 16.4118,3.30044 36.6002,2.631 54.01908,0 7.00277,-0.22789 19.73817,-8.7568 28.18353,-15.78321 8.8941,-8.16155 17.59964,-17.66915 18.76073,-25.28246 0.86919,-8.14247 1.59054,-22.56674 -0.48771,-32.1369 -3.6699,-22.56941 -17.21358,-31.85995 -19.35798,-34.15961 -2.50391,-2.06939 -19.61083,-12.340204 -30.17235,-15.854644 -10.28648,-1.881311 -24.09049,-1.339793 -37.26851,-0.962941 z m 15.09827,33.816597 c 4.74493,-0.0243 7.3934,-0.12225 10.88294,0.2475 3.83506,0.1988 6.90204,1.15039 9.87236,3.26959 7.71394,5.54611 8.09842,7.66895 11.32221,13.0247 3.23901,5.21576 5.51905,15.08329 3.42919,25.74918 -7.93516,11.34592 -10.94382,12.95513 -21.73827,16.06437 -10.90798,2.58252 -20.96738,3.03986 -31.72946,-0.20625 -19.215218,-9.32473 -30.14496,-18.28985 -30.171722,-28.44944 3.828806,-11.76355 20.494272,-24.60887 29.303482,-27.59481 2.68644,-0.55861 5.25421,-0.85209 7.5846,-1.36692 5.24646,-0.23307 7.65615,-0.77556 11.24467,-0.73792 z" /></g></svg>
